{"accessors" : [{"bufferView" : 0, "byteOffset" : 0, "componentType" : 5123, "count" : 5574, "type" : "SCALAR", "max" : [5573], "min" : [0]}, {"bufferView" : 1, "byteOffset" : 0, "componentType" : 5126, "count" : 5574, "type" : "VEC3", "max" : [2.1522345542907715, 4.649124622344971, 1.4375051259994507], "min" : [-2.1522340774536133, -4.255331516265869, -1.1331017017364502], "name" : "POSITION"}, {"bufferView" : 1, "byteOffset" : 12, "componentType" : 5126, "count" : 5574, "type" : "VEC3", "max" : [1.0000044107437134, 1.0000044107437134, 1.0000044107437134], "min" : [-1.0000044107437134, -0.9999987483024597, -1.0000044107437134], "name" : "NORMAL"}, {"bufferView" : 0, "byteOffset" : 11148, "componentType" : 5123, "count" : 177, "type" : "SCALAR", "max" : [176], "min" : [0]}, {"bufferView" : 2, "byteOffset" : 0, "componentType" : 5126, "count" : 177, "type" : "VEC3", "max" : [1.7212313413619995, 3.0959250926971436, 1.3604248762130737], "min" : [-1.7212308645248413, -1.7051894664764404, 0.4058490991592407], "name" : "POSITION"}, {"bufferView" : 2, "byteOffset" : 12, "componentType" : 5126, "count" : 177, "type" : "VEC3", "max" : [0.9672379493713379, 0.4697915017604828, 0.8885509371757507], "min" : [-0.9672380685806274, -0.5704423189163208, 0.2410575896501541], "name" : "NORMAL"}, {"bufferView" : 0, "byteOffset" : 11504, "componentType" : 5123, "count" : 36, "type" : "SCALAR", "max" : [35], "min" : [0]}, {"bufferView" : 3, "byteOffset" : 0, "componentType" : 5126, "count" : 36, "type" : "VEC3", "max" : [1.554355502128601, -3.9040281772613525, 0.2857489585876465], "min" : [-1.5543550252914429, -4.105072498321533, -0.6783593893051147], "name" : "POSITION"}, {"bufferView" : 3, "byteOffset" : 12, "componentType" : 5126, "count" : 36, "type" : "VEC3", "max" : [0.16145797073841095, -0.9678696990013123, 0.005097571760416031], "min" : [-0.1614580750465393, -0.9869226217269897, -0.19572825729846954], "name" : "NORMAL"}, {"bufferView" : 0, "byteOffset" : 11576, "componentType" : 5123, "count" : 48, "type" : "SCALAR", "max" : [47], "min" : [0]}, {"bufferView" : 4, "byteOffset" : 0, "componentType" : 5126, "count" : 48, "type" : "VEC3", "max" : [1.237213373184204, 4.258298397064209, 0.4238377809524536], "min" : [-1.237212896347046, 4.258298397064209, 0.3781322240829468], "name" : "POSITION"}, {"bufferView" : 4, "byteOffset" : 12, "componentType" : 5126, "count" : 48, "type" : "VEC3", "max" : [0, 1.0000044107437134, 1.6910897102206945E-05], "min" : [0, 1.0000044107437134, 0], "name" : "NORMAL"}, {"bufferView" : 0, "byteOffset" : 11672, "componentType" : 5123, "count" : 12, "type" : "SCALAR", "max" : [11], "min" : [0]}, {"bufferView" : 5, "byteOffset" : 0, "componentType" : 5126, "count" : 12, "type" : "VEC3", "max" : [2.1246678829193115, -0.7833104729652405, 0.6535351276397705], "min" : [-2.1246674060821533, -0.8250401616096497, 0.4000093936920166], "name" : "POSITION"}, {"bufferView" : 5, "byteOffset" : 12, "componentType" : 5126, "count" : 12, "type" : "VEC3", "max" : [0.0256759375333786, 0.9874147176742554, -0.15608206391334534], "min" : [-0.0256759375333786, 0.9874147176742554, -0.15608206391334534], "name" : "NORMAL"}, {"bufferView" : 0, "byteOffset" : 11696, "componentType" : 5123, "count" : 120, "type" : "SCALAR", "max" : [119], "min" : [0]}, {"bufferView" : 6, "byteOffset" : 0, "componentType" : 5126, "count" : 120, "type" : "VEC3", "max" : [1.5951817035675049, -3.9040281772613525, 0.3258688449859619], "min" : [-1.5951812267303467, -4.190495491027832, -0.7245389819145203], "name" : "POSITION"}, {"bufferView" : 6, "byteOffset" : 12, "componentType" : 5126, "count" : 120, "type" : "VEC3", "max" : [0.993336021900177, -0.09557828307151794, 0.9289653897285461], "min" : [-0.9933358430862427, -0.719768226146698, -0.9953042268753052], "name" : "NORMAL"}, {"bufferView" : 0, "byteOffset" : 11936, "componentType" : 5123, "count" : 12, "type" : "SCALAR", "max" : [11], "min" : [0]}, {"bufferView" : 7, "byteOffset" : 0, "componentType" : 5126, "count" : 12, "type" : "VEC3", "max" : [1.6728030443191528, 4.258298397064209, 0.3931548595428467], "min" : [-1.6728025674819946, 4.258298397064209, 0.31848812103271484], "name" : "POSITION"}, {"bufferView" : 7, "byteOffset" : 12, "componentType" : 5126, "count" : 12, "type" : "VEC3", "max" : [0, 1.0000044107437134, 4.400542820803821E-06], "min" : [0, 1.0000042915344238, 0], "name" : "NORMAL"}, {"bufferView" : 0, "byteOffset" : 11960, "componentType" : 5123, "count" : 12, "type" : "SCALAR", "max" : [11], "min" : [0]}, {"bufferView" : 8, "byteOffset" : 0, "componentType" : 5126, "count" : 12, "type" : "VEC3", "max" : [1.6575322151184082, 4.258298397064209, 0.42371463775634766], "min" : [-1.65753173828125, 4.258298397064209, 0.35316646099090576], "name" : "POSITION"}, {"bufferView" : 8, "byteOffset" : 12, "componentType" : 5126, "count" : 12, "type" : "VEC3", "max" : [0, 1.0000044107437134, 1.2690307471530105E-07], "min" : [0, 1.0000044107437134, 0], "name" : "NORMAL"}, {"bufferView" : 0, "byteOffset" : 11984, "componentType" : 5123, "count" : 300, "type" : "SCALAR", "max" : [299], "min" : [0]}, {"bufferView" : 9, "byteOffset" : 0, "componentType" : 5126, "count" : 300, "type" : "VEC3", "max" : [1.724157691001892, -3.904421091079712, 0.3617361783981323], "min" : [-1.7241572141647339, -4.2551164627075195, -0.6802518963813782], "name" : "POSITION"}, {"bufferView" : 9, "byteOffset" : 12, "componentType" : 5126, "count" : 300, "type" : "VEC3", "max" : [1.0000044107437134, 0.19821317493915558, 0.9999954700469971], "min" : [-1.0000044107437134, -0.9999977946281433, -0.9999955296516418], "name" : "NORMAL"}, {"bufferView" : 0, "byteOffset" : 12584, "componentType" : 5123, "count" : 180, "type" : "SCALAR", "max" : [179], "min" : [0]}, {"bufferView" : 10, "byteOffset" : 0, "componentType" : 5126, "count" : 180, "type" : "VEC3", "max" : [1.0772323608398438, 0.07397985458374023, 0.09192556142807007], "min" : [-1.0772323608398438, -0.071533203125, -0.08348232507705688], "name" : "POSITION"}, {"bufferView" : 10, "byteOffset" : 12, "componentType" : 5126, "count" : 180, "type" : "VEC3", "max" : [1.0000044107437134, 0.960517942905426, 0.9692540168762207], "min" : [-1.0000044107437134, -0.9605269432067871, -0.9971399307250977], "name" : "NORMAL"}, {"bufferView" : 0, "byteOffset" : 12944, "componentType" : 5123, "count" : 180, "type" : "SCALAR", "max" : [179], "min" : [0]}, {"bufferView" : 11, "byteOffset" : 0, "componentType" : 5126, "count" : 180, "type" : "VEC3", "max" : [1.2117782831192017, 0.04018545150756836, 0.12334930896759033], "min" : [-1.2117782831192017, -0.04018735885620117, -0.11159169673919678], "name" : "POSITION"}, {"bufferView" : 11, "byteOffset" : 12, "componentType" : 5126, "count" : 180, "type" : "VEC3", "max" : [1.0000044107437134, 1.0000044107437134, 0.9550480842590332], "min" : [-1.0000044107437134, -1.0000044107437134, -0.9998453259468079], "name" : "NORMAL"}, {"bufferView" : 0, "byteOffset" : 13304, "componentType" : 5123, "count" : 672, "type" : "SCALAR", "max" : [671], "min" : [0]}, {"bufferView" : 12, "byteOffset" : 0, "componentType" : 5126, "count" : 672, "type" : "VEC3", "max" : [0.3600517213344574, 0.7663366198539734, 0.7663367986679077], "min" : [-0.3421580195426941, -0.7663370966911316, -0.7663367986679077], "name" : "POSITION"}, {"bufferView" : 12, "byteOffset" : 12, "componentType" : 5126, "count" : 672, "type" : "VEC3", "max" : [1.0000044107437134, 0.9807896614074707, 0.9807896614074707], "min" : [-1.0000044107437134, -0.9807896614074707, -0.9807896614074707], "name" : "NORMAL"}, {"bufferView" : 0, "byteOffset" : 14648, "componentType" : 5123, "count" : 1908, "type" : "SCALAR", "max" : [1907], "min" : [0]}, {"bufferView" : 13, "byteOffset" : 0, "componentType" : 5126, "count" : 1908, "type" : "VEC3", "max" : [0.3600517213344574, 0.5716515183448792, 0.5716515779495239], "min" : [-0.6682277917861938, -0.5716517567634583, -0.5716515779495239], "name" : "POSITION"}, {"bufferView" : 13, "byteOffset" : 12, "componentType" : 5126, "count" : 1908, "type" : "VEC3", "max" : [1.0000044107437134, 1.0000044107437134, 1.0000044107437134], "min" : [-1.0000044107437134, -1.0000044107437134, -1.0000044107437134], "name" : "NORMAL"}, {"bufferView" : 0, "byteOffset" : 18464, "componentType" : 5123, "count" : 96, "type" : "SCALAR", "max" : [95], "min" : [0]}, {"bufferView" : 14, "byteOffset" : 0, "componentType" : 5126, "count" : 96, "type" : "VEC3", "max" : [0.16130903363227844, 0.5442746877670288, 0.5442748069763184], "min" : [-0.2853066623210907, -0.5442749857902527, -0.5442748665809631], "name" : "POSITION"}, {"bufferView" : 14, "byteOffset" : 12, "componentType" : 5126, "count" : 96, "type" : "VEC3", "max" : [0.2825080156326294, 0.940837562084198, 0.9408375024795532], "min" : [0.2825077772140503, -0.940837562084198, -0.9408374428749084], "name" : "NORMAL"}], "asset" : {"generator" : "Aspose.3D 22.1", "version" : "2.0"}, "buffers" : [{"uri" : "data:application/octet-stream;base64,", "byteLength" : 242564}], "bufferViews" : [{"buffer" : 0, "byteOffset" : 0, "byteLength" : 18656, "target" : 34963}, {"buffer" : 0, "byteOffset" : 18660, "byteLength" : 133776, "byteStride" : 24, "target" : 34962}, {"buffer" : 0, "byteOffset" : 152440, "byteLength" : 4248, "byteStride" : 24, "target" : 34962}, {"buffer" : 0, "byteOffset" : 156692, "byteLength" : 864, "byteStride" : 24, "target" : 34962}, {"buffer" : 0, "byteOffset" : 157560, "byteLength" : 1152, "byteStride" : 24, "target" : 34962}, {"buffer" : 0, "byteOffset" : 158716, "byteLength" : 288, "byteStride" : 24, "target" : 34962}, {"buffer" : 0, "byteOffset" : 159008, "byteLength" : 2880, "byteStride" : 24, "target" : 34962}, {"buffer" : 0, "byteOffset" : 161892, "byteLength" : 288, "byteStride" : 24, "target" : 34962}, {"buffer" : 0, "byteOffset" : 162184, "byteLength" : 288, "byteStride" : 24, "target" : 34962}, {"buffer" : 0, "byteOffset" : 162476, "byteLength" : 7200, "byteStride" : 24, "target" : 34962}, {"buffer" : 0, "byteOffset" : 169680, "byteLength" : 4320, "byteStride" : 24, "target" : 34962}, {"buffer" : 0, "byteOffset" : 174004, "byteLength" : 4320, "byteStride" : 24, "target" : 34962}, {"buffer" : 0, "byteOffset" : 178328, "byteLength" : 16128, "byteStride" : 24, "target" : 34962}, {"buffer" : 0, "byteOffset" : 194460, "byteLength" : 45792, "byteStride" : 24, "target" : 34962}, {"buffer" : 0, "byteOffset" : 240256, "byteLength" : 2304, "byteStride" : 24, "target" : 34962}], "materials" : [{"name" : "", "pbrMetallicRoughness" : {"baseColorFactor" : [0.8, 0.8, 0.8, 1], "metallicFactor" : 0, "roughnessFactor" : 0}, "emissiveFactor" : [0, 0, 0], "alphaMode" : "OPAQUE", "doubleSided" : false}, {"name" : "", "pbrMetallicRoughness" : {"baseColorFactor" : [0.8, 0.8, 0.8, 1], "metallicFactor" : 0, "roughnessFactor" : 0}, "emissiveFactor" : [0, 0, 0], "alphaMode" : "OPAQUE", "doubleSided" : false}, {"name" : "", "pbrMetallicRoughness" : {"baseColorFactor" : [0.8, 0.8, 0.8, 1], "metallicFactor" : 0, "roughnessFactor" : 0}, "emissiveFactor" : [0, 0, 0], "alphaMode" : "OPAQUE", "doubleSided" : false}, {"name" : "", "pbrMetallicRoughness" : {"baseColorFactor" : [0.8, 0.8, 0.8, 1], "metallicFactor" : 0, "roughnessFactor" : 0}, "emissiveFactor" : [0, 0, 0], "alphaMode" : "OPAQUE", "doubleSided" : false}, {"name" : "", "pbrMetallicRoughness" : {"baseColorFactor" : [0.8, 0.8, 0.8, 1], "metallicFactor" : 0, "roughnessFactor" : 0}, "emissiveFactor" : [0, 0, 0], "alphaMode" : "OPAQUE", "doubleSided" : false}, {"name" : "", "pbrMetallicRoughness" : {"baseColorFactor" : [0.8, 0.8, 0.8, 1], "metallicFactor" : 0, "roughnessFactor" : 0}, "emissiveFactor" : [0, 0, 0], "alphaMode" : "OPAQUE", "doubleSided" : false}, {"name" : "", "pbrMetallicRoughness" : {"baseColorFactor" : [0.8, 0.8, 0.8, 1], "metallicFactor" : 0, "roughnessFactor" : 0}, "emissiveFactor" : [0, 0, 0], "alphaMode" : "OPAQUE", "doubleSided" : false}, {"name" : "", "pbrMetallicRoughness" : {"baseColorFactor" : [0.8, 0.8, 0.8, 1], "metallicFactor" : 0, "roughnessFactor" : 0}, "emissiveFactor" : [0, 0, 0], "alphaMode" : "OPAQUE", "doubleSided" : false}, {"name" : "", "pbrMetallicRoughness" : {"baseColorFactor" : [0.8, 0.8, 0.8, 1], "metallicFactor" : 0, "roughnessFactor" : 0}, "emissiveFactor" : [0, 0, 0], "alphaMode" : "OPAQUE", "doubleSided" : false}, {"name" : "", "pbrMetallicRoughness" : {"baseColorFactor" : [0.8, 0.8, 0.8, 1], "metallicFactor" : 0, "roughnessFactor" : 0}, "emissiveFactor" : [0, 0, 0], "alphaMode" : "OPAQUE", "doubleSided" : false}, {"name" : "", "pbrMetallicRoughness" : {"baseColorFactor" : [0.8, 0.8, 0.8, 1], "metallicFactor" : 0, "roughnessFactor" : 0}, "emissiveFactor" : [0, 0, 0], "alphaMode" : "OPAQUE", "doubleSided" : false}, {"name" : "", "pbrMetallicRoughness" : {"baseColorFactor" : [0.8, 0.8, 0.8, 1], "metallicFactor" : 0, "roughnessFactor" : 0}, "emissiveFactor" : [0, 0, 0], "alphaMode" : "OPAQUE", "doubleSided" : false}, {"name" : "", "pbrMetallicRoughness" : {"baseColorFactor" : [0.8, 0.8, 0.8, 1], "metallicFactor" : 0, "roughnessFactor" : 0}, "emissiveFactor" : [0, 0, 0], "alphaMode" : "OPAQUE", "doubleSided" : false}, {"name" : "", "pbrMetallicRoughness" : {"baseColorFactor" : [0.8, 0.8, 0.8, 1], "metallicFactor" : 0, "roughnessFactor" : 0}, "emissiveFactor" : [0, 0, 0], "alphaMode" : "OPAQUE", "doubleSided" : false}], "meshes" : [{"primitives" : [{"attributes" : {"POSITION" : 1, "NORMAL" : 2}, "indices" : 0, "material" : 0, "mode" : 4}, {"attributes" : {"POSITION" : 4, "NORMAL" : 5}, "indices" : 3, "material" : 1, "mode" : 4}, {"attributes" : {"POSITION" : 7, "NORMAL" : 8}, "indices" : 6, "material" : 2, "mode" : 4}, {"attributes" : {"POSITION" : 10, "NORMAL" : 11}, "indices" : 9, "material" : 3, "mode" : 4}, {"attributes" : {"POSITION" : 13, "NORMAL" : 14}, "indices" : 12, "material" : 4, "mode" : 4}, {"attributes" : {"POSITION" : 16, "NORMAL" : 17}, "indices" : 15, "material" : 5, "mode" : 4}, {"attributes" : {"POSITION" : 19, "NORMAL" : 20}, "indices" : 18, "material" : 6, "mode" : 4}, {"attributes" : {"POSITION" : 22, "NORMAL" : 23}, "indices" : 21, "material" : 7, "mode" : 4}, {"attributes" : {"POSITION" : 25, "NORMAL" : 26}, "indices" : 24, "material" : 8, "mode" : 4}], "name" : "Cylinder"}, {"primitives" : [{"attributes" : {"POSITION" : 28, "NORMAL" : 29}, "indices" : 27, "material" : 9, "mode" : 4}], "name" : "Cube.002"}, {"primitives" : [{"attributes" : {"POSITION" : 31, "NORMAL" : 32}, "indices" : 30, "material" : 10, "mode" : 4}], "name" : "Cube.001"}, {"primitives" : [{"attributes" : {"POSITION" : 34, "NORMAL" : 35}, "indices" : 33, "material" : 11, "mode" : 4}, {"attributes" : {"POSITION" : 37, "NORMAL" : 38}, "indices" : 36, "material" : 12, "mode" : 4}, {"attributes" : {"POSITION" : 40, "NORMAL" : 41}, "indices" : 39, "material" : 13, "mode" : 4}], "name" : "Cylinder.002"}], "nodes" : [{"matrix" : [1, 0, 0, 0, 0, 1, 0, 0, 0, 0, 1, 0, 2.538277499297692E-07, -4.000741958618164, -0.5679654479026794, 1], "mesh" : 1, "name" : "lower_grill"}, {"matrix" : [1, 0, 0, 0, 0, 1, 0, 0, 0, 0, 1, 0, 2.47867291136572E-07, -4.130424499511719, 0.16638803482055664, 1], "mesh" : 2, "name" : "upper_grill"}, {"matrix" : [-0.999999999999925, -3.894143777553013E-07, 0, 0, 3.894143777553013E-07, -0.999999999999925, 0, 0, 0, 0, 1, 0, -1.6011497974395752, 3.077944278717041, -0.7466576099395752, 1], "mesh" : 3, "name" : "rear_left_wheel"}, {"matrix" : [1, 0, 0, 0, 0, 1, 0, 0, 0, 0, 1, 0, 1.6011452674865723, 3.077944278717041, -0.7466576099395752, 1], "mesh" : 3, "name" : "rear_right_wheel"}, {"matrix" : [-0.999999999999925, -3.894143777553013E-07, 0, 0, 3.894143777553013E-07, -0.999999999999925, 0, 0, 0, 0, 1, 0, -1.6011497974395752, -2.261625289916992, -0.7466576099395752, 1], "mesh" : 3, "name" : "front_right_wheel"}, {"matrix" : [1, 0, 0, 0, 0, 1, 0, 0, 0, 0, 1, 0, 1.6011452674865723, -2.261625289916992, -0.7466576099395752, 1], "mesh" : 3, "name" : "front_left_wheel"}, {"children" : [0, 1, 2, 3, 4, 5], "matrix" : [100, 0, 0, 0, 0, -1.6292067961387602E-05, -99.99999999999868, 0, 0, 99.99999999999868, -1.6292067961387602E-05, 0, -2.5382774765603244E-05, 149.22752380371094, 61.6290283203125, 1], "mesh" : 0, "name" : "car"}], "scene" : 0, "scenes" : [{"nodes" : [6]}]}